<?xml version="1.0" encoding="UTF-8"?>
<svg width="283px" height="53px" viewBox="0 0 283 53" version="1.1" xmlns="http://www.w3.org/2000/svg" xmlns:xlink="http://www.w3.org/1999/xlink">
    <!-- Generator: Sketch 55 (78076) - https://sketchapp.com -->
    <title>Group 7</title>
    <desc>Created with Sketch.</desc>
    <defs>
        <polygon id="path-1" points="8.9178828e-05 0.105971732 24.9253495 0.105971732 24.9253495 52.8735084 8.9178828e-05 52.8735084"></polygon>
    </defs>
    <g id="Symbols" stroke="none" stroke-width="1" fill="none" fill-rule="evenodd">
        <g id="Footer/2" transform="translate(-701.000000, -99.000000)">
            <g id="Footer">
                <g id="Group-7" transform="translate(697.000000, 99.000000)">
                    <g id="EVOLVE" transform="translate(48.000000, 16.000000)" fill="#FEFEFE">
                        <path d="M17.7192374,21 L0,21 L0,20.2140719 L3.08838821,20.2140719 L3.08838821,0.785928144 L0,0.785928144 L0,0 L17.1889081,0 L17.407279,5.65868263 L16.5337955,5.65868263 C16.0761197,3.64670659 15.4107452,2.33710211 14.5372617,1.72904192 C13.6637782,1.1002994 12.3638146,0.785928144 10.6377816,0.785928144 L7.05025997,0.785928144 L7.05025997,9.80838323 L7.89254766,9.80838323 C9.47286327,9.80838323 10.5129983,9.43113772 11.0121317,8.67664671 C11.5317887,7.90147337 11.7920277,7.00013788 11.7920277,5.97305389 L12.6655113,5.97305389 L12.6655113,14.744012 L11.7920277,14.744012 C11.7920277,13.6333714 11.542461,12.6691617 11.0433276,11.8517964 C10.5232601,11.0137488 9.47286327,10.5943114 7.89254766,10.5943114 L7.05025997,10.5943114 L7.05025997,20.2140719 L11.2305026,20.2140719 C13.24756,20.2140719 14.6513728,19.7218327 15.4419411,18.7365269 C16.2320989,17.7516349 16.7833622,16.252994 17.0953206,14.241018 L18,14.241018 L17.7192374,21 Z" id="Fill-1"></path>
                        <polygon id="Fill-3" points="61.3828829 1.76866764 54.0675676 22 53.1216216 22 45.6171171 1.76866764 43 1.76866764 43 1 52.9954955 1 52.9954955 1.76866764 49.7477477 1.76866764 55.1081081 16.1581259 60.4369369 1.76866764 57.1576577 1.76866764 57.1576577 1 64 1 64 1.76866764"></polygon>
                        <path d="M103.516854,7.24928367 C103.516854,5.16905444 103.109952,3.56160458 102.29695,2.4269341 C101.443018,1.33456492 100.172151,0.787965616 98.4847512,0.787965616 C96.776886,0.787965616 95.5160514,1.33456492 94.7030498,2.4269341 C93.8896469,3.51971799 93.4831461,5.12716785 93.4831461,7.24928367 L93.4831461,14.7507163 C93.4831461,16.8736616 93.8896469,18.4811114 94.7030498,19.5730659 C95.5160514,20.6658498 96.776886,21.2120344 98.4847512,21.2120344 C100.192616,21.2120344 101.45305,20.6658498 102.266453,19.5730659 C103.09992,18.4595461 103.516854,16.8520962 103.516854,14.7507163 L103.516854,7.24928367 Z M105.133226,18.6905444 C103.201445,20.8968481 100.985554,22 98.4847512,22 C95.9634831,22 93.7576244,20.9080455 91.8667737,18.722063 C89.9554575,16.5373247 89,13.9627507 89,11 C89,8.05839994 89.9454254,5.49543809 91.8362761,3.30945559 C93.747191,1.10315186 95.9634831,0 98.4847512,0 C100.985554,0 103.201445,1.09278389 105.133226,3.27793696 C107.044141,5.46350475 108,8.03724928 108,11 C108,13.9627507 107.044141,16.526542 105.133226,18.6905444 L105.133226,18.6905444 Z" id="Fill-5"></path>
                        <path d="M150.649147,21 L133,21 L133,20.2140719 L136.154328,20.2140719 L136.154328,0.785928144 L133,0.785928144 L133,0 L143.513449,0 L143.513449,0.785928144 L140.199832,0.785928144 L140.199832,20.2140719 L144.309471,20.2140719 C146.24189,20.2140719 147.654526,19.6589584 148.546541,18.5479042 C149.459514,17.4583596 149.948278,15.9179404 150.011993,13.9266467 L151,13.9266467 L150.649147,21 Z" id="Fill-8"></path>
                        <polygon id="Fill-10" points="193.38252 1.76866764 186.067349 22 185.121837 22 177.617065 1.76866764 175 1.76866764 175 1 184.995298 1 184.995298 1.76866764 181.747614 1.76866764 187.107869 16.1581259 192.437007 1.76866764 189.157378 1.76866764 189.157378 1 196 1 196 1.76866764"></polygon>
                        <path d="M238.719237,21 L221,21 L221,20.2140719 L224.087978,20.2140719 L224.087978,0.785928144 L221,0.785928144 L221,0 L238.188908,0 L238.407279,5.65868263 L237.533795,5.65868263 C237.07612,3.64670659 236.410745,2.33710211 235.537262,1.72904192 C234.663778,1.1002994 233.363815,0.785928144 231.637782,0.785928144 L228.05026,0.785928144 L228.05026,9.80838323 L228.892548,9.80838323 C230.472863,9.80838323 231.512998,9.43113772 232.012132,8.67664671 C232.531789,7.90147337 232.792028,7.00013788 232.792028,5.97305389 L233.665101,5.97305389 L233.665101,14.744012 L232.792028,14.744012 C232.792028,13.6333714 232.542461,12.6691617 232.043328,11.8517964 C231.52326,11.0137488 230.472863,10.5943114 228.892548,10.5943114 L228.05026,10.5943114 L228.05026,20.2140719 L232.230092,20.2140719 C234.24715,20.2140719 235.650962,19.7218327 236.441941,18.7365269 C237.232099,17.7516349 237.783362,16.252994 238.09491,14.241018 L239,14.241018 L238.719237,21 Z" id="Fill-12"></path>
                    </g>
                    <g id="logo" transform="translate(13.000000, 26.500000) scale(-1, 1) translate(-13.000000, -26.500000) ">
                        <g id="Group-3" transform="translate(-3.403846, 0.000000)">
                            <mask id="mask-2" fill="white">
                                <use xlink:href="#path-1"></use>
                            </mask>
                            <g id="Clip-2"></g>
                            <path d="M2.36492734,2.28347668 C2.36388549,2.38212092 2.36249636,2.45877016 2.36249636,2.5354194 C2.36249636,18.5114539 2.36249636,34.4878217 2.36249636,50.4638562 C2.36249636,50.5135116 2.36041266,50.5635002 2.36388549,50.6128223 C2.3656219,50.6438153 2.37604039,50.6741417 2.38437518,50.7114666 C9.09353422,50.7114666 15.7936639,50.7114666 22.4937936,50.7111333 C22.5156724,50.7111333 22.537204,50.7048014 22.5646393,50.7004691 C22.5872127,50.6144886 22.5767942,50.5318407 22.5767942,50.4505259 C22.5774888,34.4854889 22.5774888,18.5204519 22.5771415,2.55508159 C22.5771415,2.49976084 22.5785306,2.44444008 22.5764469,2.38945258 C22.5754051,2.35812637 22.569154,2.32680016 22.5635975,2.28347668 L2.36492734,2.28347668 Z M0.00409793865,0.116635974 C0.0610523402,0.11163711 0.0947387849,0.105971732 0.128772513,0.105971732 C8.37847866,0.107638019 16.6285321,0.109304307 24.8785855,0.11163711 C24.8886567,0.11163711 24.8983806,0.12130158 24.9115774,0.127966731 C24.9157448,0.140963776 24.9247741,0.156293624 24.9247741,0.171623472 C24.9254687,17.7179676 24.9254687,35.2649783 24.9251214,52.8113225 C24.9251214,52.8266523 24.9164394,52.8416489 24.9094937,52.864977 C24.8817111,52.8679763 24.8542757,52.8733084 24.8268404,52.8733084 C16.5601173,52.8736417 8.29304706,52.8736417 0.0200729537,52.8736417 C0.0124327291,52.8323177 0.00340337277,52.8009915 0.00166695809,52.769332 C-0.0011113054,52.7143445 0.000625109285,52.6590238 0.000625109285,52.603703 C0.000277826349,35.1953275 0.000277826349,17.786952 0.000625109285,0.378243164 C0.000625109285,0.296261802 0.0027088069,0.214280441 0.00409793865,0.116635974 L0.00409793865,0.116635974 Z" id="Fill-1" fill="#FFFFFF" mask="url(#mask-2)"></path>
                        </g>
                        <path d="M12.3922212,19.051133 C12.4145257,16.9736793 10.737974,15.2709038 8.63121668,15.2533355 C6.51736248,15.236105 4.82019608,16.896649 4.79485011,18.9974144 C4.76916619,21.1427764 6.46531875,22.8371056 8.57714527,22.8465655 C10.7457468,22.8563632 12.4131739,21.109329 12.3922212,19.051133 L12.3922212,19.051133 Z M6.79278873,25.8183141 C5.01789467,25.3118736 3.62961121,24.3060873 2.65362225,22.7553454 C1.9243341,21.5971877 1.57827707,20.3244982 1.59686412,18.9582236 C1.61815474,17.3956568 2.10783895,15.988502 3.06422702,14.7526384 C4.02095304,13.5164369 5.26898879,12.7062671 6.7765673,12.2839518 C6.78231239,12.246788 6.7904231,12.2150299 6.79177489,12.182934 C6.79447846,12.1271883 6.79278873,12.0711049 6.79278873,12.0150214 C6.79278873,9.09124774 6.79278873,6.16747411 6.79312667,3.24370048 C6.79312667,3.17140009 6.79447846,3.0990997 6.79515435,3.03794844 C6.84212889,2.98997342 6.88910343,3.00112254 6.93236055,3.00112254 C7.22907742,3.00010898 7.52613223,3.00044684 7.8228491,3.00044684 L10.1928666,3.00044684 L10.3834683,3.00044684 C10.3909032,3.04234052 10.4000277,3.07342293 10.4017174,3.10518104 C10.404759,3.16092667 10.4027313,3.21701015 10.4027313,3.27309363 L10.4027313,12.0440767 L10.4027313,12.2538829 C10.4527473,12.3157099 10.5193228,12.3157099 10.5764357,12.3322647 C11.1435096,12.4981501 11.6811822,12.7316061 12.1877637,13.0349974 C13.2894687,13.6948229 14.1454867,14.5901315 14.7578454,15.7195716 C15.1272208,16.4000061 15.3745975,17.1219964 15.5013273,17.884529 C15.6067666,18.5173264 15.622988,19.1541779 15.5564126,19.7927187 C15.497272,20.3576077 15.3749354,20.9083069 15.1799404,21.4417757 C14.8670021,22.2982312 14.4070572,23.0678587 13.7950364,23.744239 C13.2414803,24.3560895 12.5987064,24.8547594 11.8677286,25.2395732 C11.4452957,25.4625557 11.0039378,25.6365496 10.5470343,25.7727041 C10.5044531,25.7852046 10.4628857,25.8000701 10.4128697,25.8159492 C10.4091523,25.8564914 10.404421,25.893993 10.4034072,25.9314946 C10.4017174,25.9933216 10.4027313,26.0548107 10.4027313,26.1162998 L10.4027313,47.7418864 L10.4027313,47.9706124 C10.341225,48.0118304 10.2837742,47.9976406 10.2300407,47.9976406 C9.68662303,47.9986542 9.14286741,47.9983163 8.59944973,47.9983163 L7.00299133,47.9983163 L6.81002399,47.9983163 C6.80326506,47.9584497 6.79515435,47.9273673 6.79414051,47.8959471 C6.79143694,47.834458 6.79278873,47.7729688 6.79278873,47.7111419 L6.79278873,26.0690005 L6.79278873,25.8183141 Z" id="Fill-4" fill="#FFFFFF"></path>
                    </g>
                </g>
            </g>
        </g>
    </g>
</svg>