<?xml version="1.0" encoding="UTF-8"?>
<svg width="19px" height="40px" viewBox="0 0 19 40" version="1.1" xmlns="http://www.w3.org/2000/svg" xmlns:xlink="http://www.w3.org/1999/xlink">
    <!-- Generator: Sketch 54.1 (76490) - https://sketchapp.com -->
    <title>logo</title>
    <desc>Created with Sketch.</desc>
    <defs>
        <polygon id="path-1" points="6.62355477e-05 0.166389937 18.5127369 0.166389937 18.5127369 40 6.62355477e-05 40"></polygon>
    </defs>
    <g id="Page-1" stroke="none" stroke-width="1" fill="none" fill-rule="evenodd">
        <g id="Catalog" transform="translate(-18.000000, -18.000000)">
            <g id="logo" transform="translate(18.000000, 18.000000)">
                <g id="Group-3">
                    <mask id="mask-2" fill="white">
                        <use xlink:href="#path-1"></use>
                    </mask>
                    <g id="Clip-2"></g>
                    <path d="M1.75649603,1.81016352 C1.75572222,1.88462893 1.75469048,1.94249057 1.75469048,2.0003522 C1.75469048,14.060478 1.75469048,26.1208553 1.75469048,38.1809811 C1.75469048,38.2184654 1.75314286,38.2562013 1.75572222,38.293434 C1.7570119,38.3168302 1.76475,38.3397233 1.77094048,38.3678994 C6.75401587,38.3678994 11.7303849,38.3678994 16.706754,38.3676478 C16.723004,38.3676478 16.738996,38.3628679 16.759373,38.3595975 C16.7761389,38.2946918 16.7684008,38.2323019 16.7684008,38.1709182 C16.7689167,26.1190943 16.7689167,14.0672704 16.7686587,2.01519497 C16.7686587,1.97343396 16.7696905,1.93167296 16.7681429,1.89016352 C16.767369,1.86651572 16.7627262,1.84286792 16.7585992,1.81016352 L1.75649603,1.81016352 Z M0.00304365079,0.174440252 C0.0453452381,0.170666667 0.0703650794,0.166389937 0.0956428571,0.166389937 C6.2229246,0.167647799 12.3504643,0.16890566 18.478004,0.170666667 C18.4854841,0.170666667 18.4927063,0.177962264 18.5025079,0.182993711 C18.5056032,0.192805031 18.5123095,0.204377358 18.5123095,0.215949686 C18.5128254,13.4614843 18.5128254,26.707522 18.5125675,39.9530566 C18.5125675,39.9646289 18.506119,39.9759497 18.5009603,39.9935597 C18.4803254,39.9958239 18.4599484,39.9998491 18.4395714,39.9998491 C12.2996508,40.0001006 6.15947222,40.0001006 0.0149087302,40.0001006 C0.00923412698,39.9689057 0.00252777778,39.9452579 0.00123809524,39.9213585 C-0.000825396825,39.8798491 0.000464285714,39.8380881 0.000464285714,39.796327 C0.000206349206,26.6549434 0.000206349206,13.5135597 0.000464285714,0.371924528 C0.000464285714,0.310037736 0.00201190476,0.248150943 0.00304365079,0.174440252 L0.00304365079,0.174440252 Z" id="Fill-1" fill="#000000" mask="url(#mask-2)"></path>
                </g>
                <path d="M11.997191,15.0865775 C12.0131227,13.5037556 10.8155858,12.2064029 9.31075917,12.1930175 C7.80086331,12.1798895 6.5886016,13.4450659 6.57049733,15.0456491 C6.55215167,16.6802106 7.76368921,17.9711281 9.27213673,17.9783356 C10.8211378,17.9858005 12.0121572,16.6547269 11.997191,15.0865775 L11.997191,15.0865775 Z M7.99759634,20.242525 C6.72981488,19.8566656 5.73818383,19.0903522 5.04104886,17.9088346 C4.52012875,17.0264288 4.27294516,16.0567605 4.28622162,15.0157894 C4.30142921,13.8252623 4.65120364,12.7531444 5.33433798,11.811534 C6.01771371,10.8696662 6.90916782,10.252394 7.98600961,9.93062993 C7.99011325,9.90231469 7.99590661,9.87811804 7.99687217,9.85366397 C7.99880329,9.81119111 7.99759634,9.76846084 7.99759634,9.72573057 C7.99759634,7.49809352 7.99759634,5.27045646 7.99783773,3.04281941 C7.99783773,2.9877334 7.99880329,2.93264739 7.99928607,2.88605595 C8.03283932,2.84950355 8.06639256,2.85799813 8.09729051,2.85799813 C8.30923112,2.85722589 8.52141313,2.8574833 8.73335375,2.8574833 L10.4262234,2.8574833 L10.5623675,2.8574833 C10.5676781,2.8894023 10.5741956,2.91308414 10.5754026,2.93728079 C10.5775751,2.97975365 10.5761267,3.02248392 10.5761267,3.06521419 L10.5761267,9.74786794 L10.5761267,9.90772033 C10.6118525,9.95482659 10.6594064,9.95482659 10.7002013,9.96743974 C11.1052541,10.0938287 11.489306,10.2716999 11.8511499,10.5028552 C12.638082,11.0055794 13.2495235,11.6877192 13.6869226,12.548245 C13.9507621,13.0666713 14.1274597,13.6167592 14.2179811,14.1977364 C14.2932948,14.6798677 14.3048815,15.1650879 14.2573277,15.6515952 C14.2150844,16.0819868 14.1277011,16.5015672 13.988419,16.9080196 C13.7648916,17.5605571 13.4363595,18.14694 12.9992018,18.6622773 C12.6038046,19.1284491 12.1446804,19.5083881 11.6225534,19.8015796 C11.3208156,19.971471 11.0055599,20.1040378 10.6792004,20.2077745 C10.6487852,20.2172987 10.6190942,20.2286248 10.5833684,20.2407232 C10.5807131,20.2716125 10.5773337,20.3001852 10.5766095,20.3287578 C10.5754026,20.3758641 10.5761267,20.4227129 10.5761267,20.4695618 L10.5761267,36.9461992 L10.5761267,37.1204666 C10.5321937,37.1518708 10.4911574,37.1410595 10.4527763,37.1410595 C10.0646208,37.1418317 9.67622397,37.1415743 9.28806849,37.1415743 L8.14774106,37.1415743 L8.00990724,37.1415743 C8.00507944,37.1111998 7.99928607,37.087518 7.9985619,37.0635787 C7.99663078,37.0167299 7.99759634,36.969881 7.99759634,36.9227748 L7.99759634,20.4335242 L7.99759634,20.242525 Z" id="Fill-4" fill="#000000"></path>
            </g>
        </g>
    </g>
</svg>